<svg width="180" height="180" viewBox="0 0 180 180" fill="none" xmlns="http://www.w3.org/2000/svg">
<path d="M104.523 13.5H74.4418C70.608 13.5 67.5 17.8742 67.5 23.27V47.695C67.5 53.0908 70.608 57.465 74.4418 57.465H104.523C108.357 57.465 111.465 53.0908 111.465 47.695V23.27C111.465 17.8742 108.357 13.5 104.523 13.5Z" fill="#0969DA"/>
<path d="M50.5066 13.5H20.4387C16.6066 13.5 13.5 17.8742 13.5 23.27V47.695C13.5 53.0908 16.6066 57.465 20.4387 57.465H50.5066C54.3387 57.465 57.4453 53.0908 57.4453 47.695V23.27C57.4453 17.8742 54.3387 13.5 50.5066 13.5Z" fill="#0969DA"/>
<path d="M158.507 13.5H128.439C124.607 13.5 121.5 17.8742 121.5 23.27V47.695C121.5 53.0908 124.607 57.465 128.439 57.465H158.507C162.339 57.465 165.445 53.0908 165.445 47.695V23.27C165.445 17.8742 162.339 13.5 158.507 13.5Z" fill="#0969DA"/>
<path d="M158.507 67.5H128.439C124.607 67.5 121.5 71.8742 121.5 77.27V101.695C121.5 107.091 124.607 111.465 128.439 111.465H158.507C162.339 111.465 165.445 107.091 165.445 101.695V77.27C165.445 71.8742 162.339 67.5 158.507 67.5Z" fill="#0969DA"/>
<path d="M104.523 67.5H74.4418C70.608 67.5 67.5 71.8742 67.5 77.27V101.695C67.5 107.091 70.608 111.465 74.4418 111.465H104.523C108.357 111.465 111.465 107.091 111.465 101.695V77.27C111.465 71.8742 108.357 67.5 104.523 67.5Z" fill="#0969DA"/>
<path d="M104.523 121.5H74.4418C70.608 121.5 67.5 125.874 67.5 131.27V155.695C67.5 161.091 70.608 165.465 74.4418 165.465H104.523C108.357 165.465 111.465 161.091 111.465 155.695V131.27C111.465 125.874 108.357 121.5 104.523 121.5Z" fill="#0969DA"/>
</svg>
