<svg width="180" height="180" viewBox="0 0 180 180" fill="none" xmlns="http://www.w3.org/2000/svg">
<path d="M104.444 13.3333H75.5553C71.8734 13.3333 68.8887 16.3181 68.8887 20V36.6667C68.8887 40.3486 71.8734 43.3333 75.5553 43.3333H104.444C108.126 43.3333 111.111 40.3486 111.111 36.6667V20C111.111 16.3181 108.126 13.3333 104.444 13.3333Z" fill="#0969da"/>
<path d="M48.8888 87.7778H19.9999C16.318 87.7778 13.3333 90.7625 13.3333 94.4444V111.111C13.3333 114.793 16.318 117.778 19.9999 117.778H48.8888C52.5707 117.778 55.5555 114.793 55.5555 111.111V94.4444C55.5555 90.7625 52.5707 87.7778 48.8888 87.7778Z" fill="#0969da"/>
<path d="M48.8888 50H19.9999C16.318 50 13.3333 52.9848 13.3333 56.6667V73.3333C13.3333 77.0152 16.318 80 19.9999 80H48.8888C52.5707 80 55.5555 77.0152 55.5555 73.3333V56.6667C55.5555 52.9848 52.5707 50 48.8888 50Z" fill="#0969da"/>
<path d="M48.8888 13.3333H19.9999C16.318 13.3333 13.3333 16.3181 13.3333 20V36.6667C13.3333 40.3486 16.318 43.3333 19.9999 43.3333H48.8888C52.5707 43.3333 55.5555 40.3486 55.5555 36.6667V20C55.5555 16.3181 52.5707 13.3333 48.8888 13.3333Z" fill="#0969da"/>
<path d="M104.444 124.444H75.5553C71.8734 124.444 68.8887 127.429 68.8887 131.111V147.778C68.8887 151.46 71.8734 154.444 75.5553 154.444H104.444C108.126 154.444 111.111 151.46 111.111 147.778V131.111C111.111 127.429 108.126 124.444 104.444 124.444Z" fill="#0969da"/>
<path d="M104.444 87.7778H75.5553C71.8734 87.7778 68.8887 90.7625 68.8887 94.4444V111.111C68.8887 114.793 71.8734 117.778 75.5553 117.778H104.444C108.126 117.778 111.111 114.793 111.111 111.111V94.4444C111.111 90.7625 108.126 87.7778 104.444 87.7778Z" fill="#0969da"/>
<path d="M104.444 50H75.5553C71.8734 50 68.8887 52.9848 68.8887 56.6667V73.3333C68.8887 77.0152 71.8734 80 75.5553 80H104.444C108.126 80 111.111 77.0152 111.111 73.3333V56.6667C111.111 52.9848 108.126 50 104.444 50Z" fill="#0969da"/>
<path d="M160 50H131.111C127.429 50 124.444 52.9848 124.444 56.6667V73.3333C124.444 77.0152 127.429 80 131.111 80H160C163.682 80 166.667 77.0152 166.667 73.3333V56.6667C166.667 52.9848 163.682 50 160 50Z" fill="#0969da"/>
<path d="M160 13.3333H131.111C127.429 13.3333 124.444 16.3181 124.444 20V36.6667C124.444 40.3486 127.429 43.3333 131.111 43.3333H160C163.682 43.3333 166.667 40.3486 166.667 36.6667V20C166.667 16.3181 163.682 13.3333 160 13.3333Z" fill="#0969da"/>
</svg>
