<svg width="16" height="16" viewBox="0 0 16 16" fill="none" xmlns="http://www.w3.org/2000/svg">
<path d="M8.73917 1.15558H6.5497C6.27065 1.15558 6.04443 1.47395 6.04443 1.86669V3.64447C6.04443 4.0372 6.27065 4.35558 6.5497 4.35558H8.73917C9.01822 4.35558 9.24443 4.0372 9.24443 3.64447V1.86669C9.24443 1.47395 9.01822 1.15558 8.73917 1.15558Z" fill="#0969DA"/>
<path d="M3.93912 1.15558H1.74965C1.4706 1.15558 1.24438 1.47395 1.24438 1.86669V3.64447C1.24438 4.0372 1.4706 4.35558 1.74965 4.35558H3.93912C4.21817 4.35558 4.44438 4.0372 4.44438 3.64447V1.86669C4.44438 1.47395 4.21817 1.15558 3.93912 1.15558Z" fill="#0969DA"/>
<path d="M13.5392 1.15558H11.3497C11.0707 1.15558 10.8445 1.47395 10.8445 1.86669V3.64447C10.8445 4.0372 11.0707 4.35558 11.3497 4.35558H13.5392C13.8183 4.35558 14.0445 4.0372 14.0445 3.64447V1.86669C14.0445 1.47395 13.8183 1.15558 13.5392 1.15558Z" fill="#0969DA"/>
<path d="M13.5392 5.95557H11.3497C11.0707 5.95557 10.8445 6.27394 10.8445 6.66668V8.44446C10.8445 8.83719 11.0707 9.15557 11.3497 9.15557H13.5392C13.8183 9.15557 14.0445 8.83719 14.0445 8.44446V6.66668C14.0445 6.27394 13.8183 5.95557 13.5392 5.95557Z" fill="#0969DA"/>
<path d="M8.73917 5.95557H6.5497C6.27065 5.95557 6.04443 6.27394 6.04443 6.66668V8.44446C6.04443 8.83719 6.27065 9.15557 6.5497 9.15557H8.73917C9.01822 9.15557 9.24443 8.83719 9.24443 8.44446V6.66668C9.24443 6.27394 9.01822 5.95557 8.73917 5.95557Z" fill="#0969DA"/>
<path d="M8.73917 10.8444H6.5497C6.27065 10.8444 6.04443 11.1628 6.04443 11.5555V13.3333C6.04443 13.726 6.27065 14.0444 6.5497 14.0444H8.73917C9.01822 14.0444 9.24443 13.726 9.24443 13.3333V11.5555C9.24443 11.1628 9.01822 10.8444 8.73917 10.8444Z" fill="#0969DA"/>
</svg>
