<svg xmlns="http://www.w3.org/2000/svg" width="32" height="32" viewBox="0 0 760 731" fill="none"><g clip-path="url(#a)"><path fill="#217AB6" d="M365.964 0h130.999v80.067c7.377-5.362 7.377-5.362 14.742-10.74 31.698-22.605 67.656-36.514 105.86-43.331l3.789-.735c10.406-1.857 21.017-2.017 31.56-2.385 2.894 22.393 5.744 44.791 8.551 67.195l.954 7.6c1.45 11.544 2.901 23.09 4.218 34.651l.257 2.208c.643 5.773.805 11.484.575 17.285-3.575 1.192-7.064 1.542-10.786 1.95-7.661.888-15.008 2.369-22.483 4.289v2.08l2.993-.126c5.019.011 9.738 1.033 14.616 2.14l2.982.676c33.496 8.052 64.15 24.788 91.067 45.925 2.887 2.247 5.818 4.436 8.749 6.626l3.139 2.347 2.254 1.682c-.619 3.922-2.329 6.038-4.873 9.033l-2.543 3.031-1.426 1.686c-2.995 3.559-5.942 7.159-8.897 10.751l-1.924 2.334a1027.992 1027.992 0 0 0-11.413 14.096 1234.274 1234.274 0 0 1-7 8.646 1243.002 1243.002 0 0 0-15.889 19.863 1405.213 1405.213 0 0 1-12.054 15.165 562.092 562.092 0 0 0-7.899 10.044l-1.57 2.037a478.965 478.965 0 0 0-2.94 3.863c-3.359 4.358-3.359 4.358-6.825 5.514-1.713-.975-1.713-.975-3.586-2.527l-2.127-1.714-2.28-1.868c-16.512-13.073-36.19-24.152-57.506-26.126 6.348 7.861 6.348 7.861 12.995 15.467 34.367 38.976 59.714 101.891 56.663 154.025l-4.098.5c-12.36 1.541-24.671 3.319-36.969 5.284l-2.114.333c-2.014.319-4.028.645-6.041.971l-3.515.567c-6.818 1.329-10.975 2.192-15.232 7.877l-2.4 3.124-2.408 3.18a882.52 882.52 0 0 1-4.614 5.59c-3.757 4.587-7.379 9.265-10.976 13.979-6.294 8.212-12.893 16.183-19.45 24.185-6.589 8.044-13.089 16.109-19.226 24.506-3.316 4.328-3.316 4.328-4.996 5.568-4.365 0-7.215-3.482-10.266-6.239-16.209-14.115-35.869-24.825-57.312-28.075v2.08l1.894.838c2.338 1.281 3.545 2.419 5.225 4.462l1.629 1.977 1.713 2.146 1.805 2.252c32.3 40.965 52.86 94.92 52.193 147.418l-2.832.237c-15.863 1.337-31.719 2.677-47.527 4.573l-3.257.387c-5.5.671-5.5.671-10.843 2.082-2.678.266-5.342.488-8.025.675l-4.929.368-2.598.191c-13.162.976-26.199 2.038-39.194 4.433-2.998.493-5.653.618-8.674.572l-.237-1.948c-3.319-27.033-7.133-54.775-25.755-76.039l-2.465-2.843c-3.981-4.916-3.981-4.916-8.972-8.595L377.401 731h-127.88V607.26h-2.079v2.08a61.672 61.672 0 0 1-3.509 2.924c-8.963 7.643-15.735 17.513-20.404 28.271l-1.547 3.294c-7.935 17.429-10.01 35.032-11.968 53.896-9.004.303-17.839-.641-26.772-1.624l-5.005-.538c-11.546-1.245-23.085-2.552-34.624-3.857l-2.168-.245c-7.227-.818-14.453-1.637-21.678-2.464l-6.225-.71c-2.554-.292-5.107-.584-7.66-.878a630.24 630.24 0 0 0-22.708-2.162c.447-29.664 2.438-61.621 16.638-88.394 1.174-2.346 2.115-4.733 3.059-7.18 8.47-21.579 22.546-41.673 38.524-58.32a212.023 212.023 0 0 0 3.119-3.835l2.08-2.404h2.079v-2.08c-14.234 3.105-26.221 7.031-38.864 14.378-3.607 2.092-7.1 3.961-11.04 5.379v2.08c-1.724 1.389-3.513 2.697-5.329 3.964-3.38 2.389-6.689 4.755-9.811 7.474-2.535 2.079-2.535 2.079-4.614 2.079-1.73-1.909-1.73-1.909-3.769-4.549l-2.254-2.888-2.294-2.961a1533.827 1533.827 0 0 0-4.094-5.134l-2.088-2.612c-2.189-2.718-4.402-5.416-6.62-8.111A694.187 694.187 0 0 1 47.566 519.2a966.125 966.125 0 0 0-12.736-15.923 1059.551 1059.551 0 0 1-14.148-17.73c-3.678-4.7-7.446-9.32-11.239-13.928-3.218-3.95-6.34-7.973-9.442-12.014 3.514-4.466 7.17-8.113 11.696-11.569l1.913-1.472c2.04-1.558 4.09-3.099 6.145-4.637l2.032-1.537c12.142-9.126 25.02-16.482 38.515-23.418l3.692-1.914c17.196-8.409 35.879-12.955 54.53-16.803l-1.04-2.08a146.974 146.974 0 0 0-9.162-1.56l-5.402-.8-2.677-.388a487.892 487.892 0 0 1-9.986-1.606l-5.003-.845c.513-18.347 2.28-36.509 4.242-54.743.319-2.973.63-5.947.941-8.922 2.21-21.092 4.681-42.148 7.293-63.194 1.496-.011 2.992-.018 4.488-.024l2.524-.014c2.786.045 5.394.418 8.128.947 5.846 1.06 11.692 1.832 17.59 2.524 3.686.44 7.308.976 10.936 1.766-5.27-7.516-10.879-14.668-16.696-21.763-4.556-5.567-8.971-11.226-13.328-16.951a419.622 419.622 0 0 0-6.364-8.079c2.271-5.573 7.049-8.471 11.672-12.076 1.968-1.538 3.919-3.097 5.872-4.654 25.629-20.233 54.691-35.1 86.415-43.055 1.438-.361 2.873-.735 4.305-1.118 5.066-1.336 9.233-1.671 14.417-1.486v-2.08l-3.184-.39c-4.094-.65-4.094-.65-7.343-1.657-4.714-1.382-9.483-1.79-14.36-2.242l-2.756-.272a1487.35 1487.35 0 0 0-6.666-.638c-.162-7.857.283-15.457 1.222-23.254l.413-3.568c.312-2.696.627-5.391.944-8.086.602-5.118 1.187-10.239 1.772-15.359 1.261-11.037 2.531-22.074 3.802-33.11l1.819-15.815 3.544-30.787c6.324-.076 12.506-.05 18.791.764l3.895.503 4.02.553 2.092.284c9.621 1.318 19.026 2.85 28.358 5.601 2.483.724 4.978 1.402 7.474 2.08 32.491 8.92 61.959 24.002 88.725 44.408a120.445 120.445 0 0 0 5.714 4.038V0Z"/><path fill="#2B7A3A" d="M365.964 0h130.999v80.067c7.377-5.362 7.377-5.362 14.742-10.74 31.698-22.605 67.656-36.514 105.86-43.331l3.789-.735c10.406-1.857 21.017-2.017 31.56-2.385 2.894 22.393 5.744 44.792 8.551 67.195l.954 7.6c1.45 11.544 2.901 23.09 4.218 34.651l.257 2.208c.643 5.773.805 11.484.575 17.285-3.575 1.192-7.064 1.542-10.786 1.95-7.661.888-15.008 2.369-22.483 4.289v2.08l2.993-.126c5.019.011 9.738 1.033 14.616 2.14l2.982.676c33.496 8.052 64.15 24.788 91.067 45.925 2.887 2.247 5.818 4.436 8.749 6.626l3.139 2.347 2.254 1.682c-.619 3.922-2.329 6.038-4.873 9.034l-2.543 3.03-1.426 1.686c-2.995 3.559-5.942 7.159-8.897 10.751l-1.924 2.334a1027.992 1027.992 0 0 0-11.413 14.096 1211.465 1211.465 0 0 1-7 8.646 1243.002 1243.002 0 0 0-15.889 19.863 1405.213 1405.213 0 0 1-12.054 15.165 562.092 562.092 0 0 0-7.899 10.044l-1.57 2.037a478.965 478.965 0 0 0-2.94 3.863c-3.359 4.358-3.359 4.358-6.825 5.514-1.713-.975-1.713-.975-3.586-2.527l-2.127-1.714-2.28-1.868c-16.512-13.073-36.19-24.152-57.506-26.126 6.348 7.861 6.348 7.861 12.995 15.467 34.367 38.976 59.714 101.891 56.663 154.025l-4.098.5c-13.837 1.728-27.589 3.811-41.338 6.128l-3.989.663-3.548.6a50.049 50.049 0 0 1-8.368.428c4.307-7.873 4.307-7.873 7.278-10.399-1.611-4.166-4.508-6.584-7.863-9.358l-1.791-1.494c-26.854-22.03-58.915-39.95-92.925-47.715-3.265-.945-5.392-2.308-7.627-4.862v-3.12c6.415-1.727 12.5-2.222 19.104-2.144l2.319.014c1.87.012 3.739.031 5.609.051l-.42-3.782-9.037-81.346-.351-3.158-.675-6.085a2638.02 2638.02 0 0 0-1.584-14.027l-.296-2.585a1477.38 1477.38 0 0 0-.551-4.714c-.468-4.091-.688-8.086-.602-12.202-52.514 3.085-102.883 18.671-144.321 51.837-4.134 3.274-4.134 3.274-6.431 3.274v-80.067H248.482v48.872l-12.477 4.159c-3.851 1.857-7.56 3.869-11.302 5.934-3.719 1.537-4.736 1.698-8.451.305-3.025-1.481-5.96-3.108-8.902-4.744-9.552-5.174-19.32-9.324-29.477-13.15a234.63 234.63 0 0 1-5.251-2.078c-4.48-1.777-8.78-3.013-13.528-3.83-17.422-3.152-17.422-3.152-22.507-10.447a143.174 143.174 0 0 1-3.389-5.476c-2.006-3.231-4.426-6.128-6.813-9.082-.955-1.209-1.908-2.42-2.859-3.631l-1.446-1.835a5133.182 5133.182 0 0 1-4.597-5.85l-1.55-1.975-2.917-3.718a1234.479 1234.479 0 0 0-8.009-10.092c2.271-5.573 7.049-8.471 11.672-12.076 1.968-1.538 3.919-3.097 5.872-4.654 25.628-20.233 54.691-35.1 86.415-43.055 1.438-.361 2.873-.735 4.305-1.118 5.066-1.336 9.233-1.671 14.417-1.486v-2.08l-3.184-.39c-4.094-.65-4.094-.65-7.343-1.657-4.714-1.382-9.483-1.79-14.36-2.242l-2.756-.272a1487.35 1487.35 0 0 0-6.666-.638c-.162-7.857.283-15.457 1.222-23.254l.413-3.568c.312-2.696.627-5.391.944-8.086.602-5.118 1.187-10.239 1.772-15.359 1.261-11.037 2.531-22.074 3.802-33.11l1.819-15.815 3.544-30.787c6.324-.075 12.506-.05 18.791.764l3.895.503 4.02.553 2.092.284c9.621 1.318 19.026 2.85 28.358 5.601 2.483.724 4.978 1.402 7.474 2.08 32.491 8.92 61.959 24.002 88.725 44.408a120.445 120.445 0 0 0 5.714 4.038V0Z"/><path fill="#2A95D8" d="M249.521 240.201h63.42V731h-63.42V607.26h-2.079v2.08a61.69 61.69 0 0 1-3.509 2.925c-8.963 7.642-15.735 17.512-20.404 28.27l-1.547 3.294c-7.935 17.429-10.01 35.032-11.968 53.896-9.004.303-17.839-.641-26.772-1.624l-5.005-.538c-11.546-1.245-23.085-2.552-34.624-3.857l-2.168-.245c-7.227-.817-14.453-1.637-21.678-2.464l-6.225-.71c-2.554-.292-5.107-.584-7.66-.878a630.234 630.234 0 0 0-22.708-2.161c.447-29.665 2.438-61.622 16.638-88.395 1.174-2.346 2.115-4.733 3.059-7.18 8.47-21.579 22.546-41.673 38.524-58.32a212.023 212.023 0 0 0 3.119-3.835l2.08-2.404h2.079v-2.08c-14.234 3.105-26.221 7.031-38.864 14.378-3.607 2.092-7.1 3.961-11.04 5.379v2.08a95.63 95.63 0 0 1-5.329 3.964c-3.38 2.389-6.689 4.756-9.811 7.474-2.535 2.079-2.535 2.079-4.614 2.079-1.73-1.909-1.73-1.909-3.769-4.549l-2.254-2.888-2.294-2.961a1533.827 1533.827 0 0 0-4.094-5.134l-2.088-2.612c-2.189-2.718-4.402-5.416-6.62-8.111A694.187 694.187 0 0 1 47.566 519.2a966.125 966.125 0 0 0-12.736-15.923 1059.551 1059.551 0 0 1-14.148-17.73c-3.678-4.7-7.446-9.32-11.239-13.928-3.218-3.95-6.34-7.973-9.442-12.014 3.514-4.466 7.17-8.113 11.696-11.569l1.913-1.472c2.04-1.558 4.09-3.099 6.145-4.637l2.032-1.537c12.142-9.126 25.02-16.482 38.515-23.418l3.692-1.914c17.196-8.409 35.879-12.955 54.53-16.803l-1.04-2.08a146.974 146.974 0 0 0-9.162-1.56l-5.402-.8-2.677-.388a487.892 487.892 0 0 1-9.986-1.606l-5.003-.845c.513-18.347 2.28-36.509 4.242-54.743.319-2.973.63-5.947.941-8.922 2.21-21.092 4.681-42.148 7.293-63.194 1.496-.011 2.992-.018 4.488-.024l2.524-.014c2.786.045 5.394.418 8.128.947 5.122.921 10.24 1.685 15.4 2.34l4.119.528c3.385.339 6.649.456 10.047.382v2.08l3.184.26c23.595 3.078 50.747 13.555 70.466 26.657 2.194 1.366 2.194 1.366 4.736 1.052 4.67-1.61 8.896-4.036 13.247-6.352 4.017-1.861 4.017-1.861 14.414-4.98l1.039-46.792Z"/><path fill="#379249" d="M365.964 0h65.5l1.039 285.953-19.753 10.398c-3.272 1.85-6.491 3.684-9.682 5.654l-2.285 1.397c-5.955 3.719-11.493 7.862-16.898 12.34-4.216 3.486-4.216 3.486-6.484 3.486v-80.067H248.482v48.872l-12.477 4.159c-3.851 1.857-7.56 3.869-11.302 5.934-3.719 1.537-4.736 1.698-8.451.305-3.025-1.481-5.96-3.108-8.902-4.744-9.552-5.174-19.32-9.324-29.477-13.15a234.63 234.63 0 0 1-5.251-2.078c-4.48-1.777-8.78-3.013-13.528-3.83-17.422-3.152-17.422-3.152-22.507-10.447a143.174 143.174 0 0 1-3.389-5.476c-2.006-3.231-4.426-6.128-6.813-9.082-.955-1.209-1.908-2.42-2.859-3.631l-1.446-1.835a5133.182 5133.182 0 0 1-4.597-5.85l-1.55-1.975-2.917-3.718a1234.479 1234.479 0 0 0-8.009-10.092c2.271-5.573 7.049-8.471 11.672-12.076 1.968-1.538 3.919-3.097 5.872-4.654 25.628-20.233 54.691-35.1 86.415-43.055 1.438-.361 2.873-.735 4.305-1.118 5.066-1.336 9.233-1.671 14.417-1.486v-2.08l-3.184-.39c-4.094-.65-4.094-.65-7.343-1.657-4.714-1.382-9.483-1.79-14.36-2.242l-2.756-.272a1487.35 1487.35 0 0 0-6.666-.638c-.162-7.857.283-15.457 1.222-23.254l.413-3.568c.312-2.696.627-5.391.944-8.086.602-5.118 1.187-10.239 1.772-15.359 1.261-11.037 2.531-22.074 3.802-33.11l1.819-15.815 3.544-30.787c6.324-.075 12.506-.05 18.791.764l3.895.503 4.02.553 2.092.284c9.621 1.318 19.026 2.85 28.358 5.601 2.483.724 4.978 1.402 7.474 2.08 32.491 8.92 61.959 24.002 88.725 44.408a120.445 120.445 0 0 0 5.714 4.038V0Z"/><path fill="#378F4A" d="m248.482 288.033-.001 31.195c-3.008-1.505-5.391-2.861-8.057-4.81l-1.933-1.405c-.477-.351-10.803-6.783-22.24-14.582 9.638-11.438 30.432-10.398 32.231-10.398Z"/></g><defs><clipPath id="a"><path fill="#fff" d="M0 0h760v731H0z"/></clipPath></defs></svg>