<svg width="32" height="32" viewBox="0 0 32 32" fill="none" xmlns="http://www.w3.org/2000/svg">
<path d="M18.5678 2.37036H13.432C12.7775 2.37036 12.2468 2.90099 12.2468 3.55555V6.51851C12.2468 7.17307 12.7775 7.70369 13.432 7.70369H18.5678C19.2224 7.70369 19.753 7.17307 19.753 6.51851V3.55555C19.753 2.90099 19.2224 2.37036 18.5678 2.37036Z" fill="#0969da"/>
<path d="M8.69135 15.6049H3.55555C2.90099 15.6049 2.37036 16.1356 2.37036 16.7901V19.7531C2.37036 20.4077 2.90099 20.9383 3.55555 20.9383H8.69135C9.34591 20.9383 9.87653 20.4077 9.87653 19.7531V16.7901C9.87653 16.1356 9.34591 15.6049 8.69135 15.6049Z" fill="#0969da"/>
<path d="M8.69135 8.88889H3.55555C2.90099 8.88889 2.37036 9.41951 2.37036 10.0741V13.037C2.37036 13.6916 2.90099 14.2222 3.55555 14.2222H8.69135C9.34591 14.2222 9.87653 13.6916 9.87653 13.037V10.0741C9.87653 9.41951 9.34591 8.88889 8.69135 8.88889Z" fill="#0969da"/>
<path d="M8.69135 2.37036H3.55555C2.90099 2.37036 2.37036 2.90099 2.37036 3.55555V6.51851C2.37036 7.17307 2.90099 7.70369 3.55555 7.70369H8.69135C9.34591 7.70369 9.87653 7.17307 9.87653 6.51851V3.55555C9.87653 2.90099 9.34591 2.37036 8.69135 2.37036Z" fill="#0969da"/>
<path d="M18.5678 22.1234H13.432C12.7775 22.1234 12.2468 22.6541 12.2468 23.3086V26.2716C12.2468 26.9262 12.7775 27.4568 13.432 27.4568H18.5678C19.2224 27.4568 19.753 26.9262 19.753 26.2716V23.3086C19.753 22.6541 19.2224 22.1234 18.5678 22.1234Z" fill="#0969da"/>
<path d="M18.5678 15.6049H13.432C12.7775 15.6049 12.2468 16.1356 12.2468 16.7901V19.7531C12.2468 20.4077 12.7775 20.9383 13.432 20.9383H18.5678C19.2224 20.9383 19.753 20.4077 19.753 19.7531V16.7901C19.753 16.1356 19.2224 15.6049 18.5678 15.6049Z" fill="#0969da"/>
<path d="M18.5678 8.88889H13.432C12.7775 8.88889 12.2468 9.41951 12.2468 10.0741V13.037C12.2468 13.6916 12.7775 14.2222 13.432 14.2222H18.5678C19.2224 14.2222 19.753 13.6916 19.753 13.037V10.0741C19.753 9.41951 19.2224 8.88889 18.5678 8.88889Z" fill="#0969da"/>
<path d="M28.4445 8.88889H23.3087C22.6542 8.88889 22.1235 9.41951 22.1235 10.0741V13.037C22.1235 13.6916 22.6542 14.2222 23.3087 14.2222H28.4445C29.0991 14.2222 29.6297 13.6916 29.6297 13.037V10.0741C29.6297 9.41951 29.0991 8.88889 28.4445 8.88889Z" fill="#0969da"/>
<path d="M28.4445 2.37036H23.3087C22.6542 2.37036 22.1235 2.90099 22.1235 3.55555V6.51851C22.1235 7.17307 22.6542 7.70369 23.3087 7.70369H28.4445C29.0991 7.70369 29.6297 7.17307 29.6297 6.51851V3.55555C29.6297 2.90099 29.0991 2.37036 28.4445 2.37036Z" fill="#0969da"/>
</svg>
