<svg width="16" height="16" viewBox="0 0 16 16" fill="none" xmlns="http://www.w3.org/2000/svg">
<path d="M9.29095 1.20001H6.61705C6.27626 1.20001 6 1.58883 6 2.06846V4.23957C6 4.7192 6.27626 5.10801 6.61705 5.10801H9.29095C9.63174 5.10801 9.908 4.7192 9.908 4.23957V2.06846C9.908 1.58883 9.63174 1.20001 9.29095 1.20001Z" fill="#0969DA"/>
<path d="M4.48942 1.20001H1.81673C1.47609 1.20001 1.19995 1.58883 1.19995 2.06846V4.23957C1.19995 4.7192 1.47609 5.10801 1.81673 5.10801H4.48942C4.83006 5.10801 5.1062 4.7192 5.1062 4.23957V2.06846C5.1062 1.58883 4.83006 1.20001 4.48942 1.20001Z" fill="#0969DA"/>
<path d="M14.0895 1.20001H11.4168C11.0762 1.20001 10.8 1.58883 10.8 2.06846V4.23957C10.8 4.7192 11.0762 5.10801 11.4168 5.10801H14.0895C14.4302 5.10801 14.7063 4.7192 14.7063 4.23957V2.06846C14.7063 1.58883 14.4302 1.20001 14.0895 1.20001Z" fill="#0969DA"/>
<path d="M14.0895 6H11.4168C11.0762 6 10.8 6.38882 10.8 6.86844V9.03956C10.8 9.51918 11.0762 9.908 11.4168 9.908H14.0895C14.4302 9.908 14.7063 9.51918 14.7063 9.03956V6.86844C14.7063 6.38882 14.4302 6 14.0895 6Z" fill="#0969DA"/>
<path d="M9.29095 6H6.61705C6.27626 6 6 6.38882 6 6.86844V9.03956C6 9.51918 6.27626 9.908 6.61705 9.908H9.29095C9.63174 9.908 9.908 9.51918 9.908 9.03956V6.86844C9.908 6.38882 9.63174 6 9.29095 6Z" fill="#0969DA"/>
<path d="M9.29095 10.8H6.61705C6.27626 10.8 6 11.1888 6 11.6684V13.8395C6 14.3192 6.27626 14.708 6.61705 14.708H9.29095C9.63174 14.708 9.908 14.3192 9.908 13.8395V11.6684C9.908 11.1888 9.63174 10.8 9.29095 10.8Z" fill="#0969DA"/>
</svg>
