<svg width="512" height="512" viewBox="0 0 512 512" fill="none" xmlns="http://www.w3.org/2000/svg">
<path d="M279.654 36.9778H209.591C200.661 36.9778 193.422 47.1658 193.422 59.7333V116.622C193.422 129.19 200.661 139.378 209.591 139.378H279.654C288.583 139.378 295.822 129.19 295.822 116.622V59.7333C295.822 47.1658 288.583 36.9778 279.654 36.9778Z" fill="#0969DA"/>
<path d="M126.054 36.9778H55.9907C47.0611 36.9778 39.8223 47.1658 39.8223 59.7333V116.622C39.8223 129.19 47.0611 139.378 55.9907 139.378H126.054C134.983 139.378 142.222 129.19 142.222 116.622V59.7333C142.222 47.1658 134.983 36.9778 126.054 36.9778Z" fill="#0969DA"/>
<path d="M433.254 36.9778H363.191C354.261 36.9778 347.022 47.1658 347.022 59.7333V116.622C347.022 129.19 354.261 139.378 363.191 139.378H433.254C442.183 139.378 449.422 129.19 449.422 116.622V59.7333C449.422 47.1658 442.183 36.9778 433.254 36.9778Z" fill="#0969DA"/>
<path d="M433.254 190.578H363.191C354.261 190.578 347.022 200.766 347.022 213.333V270.222C347.022 282.79 354.261 292.978 363.191 292.978H433.254C442.183 292.978 449.422 282.79 449.422 270.222V213.333C449.422 200.766 442.183 190.578 433.254 190.578Z" fill="#0969DA"/>
<path d="M279.654 190.578H209.591C200.661 190.578 193.422 200.766 193.422 213.333V270.222C193.422 282.79 200.661 292.978 209.591 292.978H279.654C288.583 292.978 295.822 282.79 295.822 270.222V213.333C295.822 200.766 288.583 190.578 279.654 190.578Z" fill="#0969DA"/>
<path d="M279.654 347.022H209.591C200.661 347.022 193.422 357.21 193.422 369.778V426.667C193.422 439.234 200.661 449.422 209.591 449.422H279.654C288.583 449.422 295.822 439.234 295.822 426.667V369.778C295.822 357.21 288.583 347.022 279.654 347.022Z" fill="#0969DA"/>
</svg>
