<svg width="192" height="192" viewBox="0 0 192 192" fill="none" xmlns="http://www.w3.org/2000/svg">
<path d="M111.491 14.4H79.4046C75.3152 14.4 72 19.0658 72 24.8214V50.8747C72 56.6302 75.3152 61.296 79.4046 61.296H111.491C115.581 61.296 118.896 56.6302 118.896 50.8747V24.8214C118.896 19.0658 115.581 14.4 111.491 14.4Z" fill="#0969DA"/>
<path d="M53.8736 14.4H21.8012C17.7136 14.4 14.3999 19.0658 14.3999 24.8214V50.8747C14.3999 56.6302 17.7136 61.296 21.8012 61.296H53.8736C57.9612 61.296 61.2749 56.6302 61.2749 50.8747V24.8214C61.2749 19.0658 57.9612 14.4 53.8736 14.4Z" fill="#0969DA"/>
<path d="M169.074 14.4H137.001C132.914 14.4 129.6 19.0658 129.6 24.8214V50.8747C129.6 56.6302 132.914 61.296 137.001 61.296H169.074C173.161 61.296 176.475 56.6302 176.475 50.8747V24.8214C176.475 19.0658 173.161 14.4 169.074 14.4Z" fill="#0969DA"/>
<path d="M169.074 72H137.001C132.914 72 129.6 76.6658 129.6 82.4213V108.475C129.6 114.23 132.914 118.896 137.001 118.896H169.074C173.161 118.896 176.475 114.23 176.475 108.475V82.4213C176.475 76.6658 173.161 72 169.074 72Z" fill="#0969DA"/>
<path d="M111.491 72H79.4046C75.3152 72 72 76.6658 72 82.4213V108.475C72 114.23 75.3152 118.896 79.4046 118.896H111.491C115.581 118.896 118.896 114.23 118.896 108.475V82.4213C118.896 76.6658 115.581 72 111.491 72Z" fill="#0969DA"/>
<path d="M111.491 129.6H79.4046C75.3152 129.6 72 134.266 72 140.021V166.075C72 171.83 75.3152 176.496 79.4046 176.496H111.491C115.581 176.496 118.896 171.83 118.896 166.075V140.021C118.896 134.266 115.581 129.6 111.491 129.6Z" fill="#0969DA"/>
</svg>
