<svg xmlns="http://www.w3.org/2000/svg" width="192" height="192" fill="none"><g fill="#0969DA" clip-path="url(#a)"><path d="M176.35 32.709h6.315v9.343h-.549l.017.452c.046 2.21-.229 4.37-.515 6.555l-.151 1.183c-.29 2.257-.617 4.503-1.015 6.743-.283 1.611-.44 3.22-.533 4.852h-.824v1.1h-.549l.035.953c0 1.257-.253 2.374-.584 3.58l-.159.606q-.191.729-.39 1.456h-.549l.033.503c.067 1.866-.287 3.298-.96 5.027l-.521 1.393-.249.668c-.324.938-.553 1.884-.774 2.851h-.824l-.824 4.397h-.823a82 82 0 0 0-1.373 4.946h-.824l-.824 2.748h-.549v1.1h-.549v1.098h-.549v1.1h-.549l-.204.68c-.407 1.142-.927 2.192-1.478 3.27l-.31.613q-.376.742-.754 1.482h-.549v1.099h-.549l-.24.756a13 13 0 0 1-.858 1.992h-.549v1.649h-.55v1.099h-1.098l-.549 1.649h-.549v.55h-.549l-.549 1.648h-.55l-.549 1.649h-.549v.55h-.549l-.549 1.649h-.549v.549h-.549l-.549 1.649h-.55v.55h-.549v.549h-.549v.55h-.549l-.549 1.649h-.549v.549h-.549v.55h-.55v.549h-.549v.55h-.549v.55h-.549v.549h-.549v.55h-.549v.549h-.549l-.275 1.099h-.824v.55h-.549v.55h-.549v.549h-.549v.55h-.549v.549h-.549v.55h-.549v.55h-.549v.549h-.55v.55h-.549v.549h-.549v.55h-.549v.55h-.824v.549h-.549v.55h-.824v.549h-.549v.55h-.549v.55h-.824v.549h-.823v.55h-.549v.549h-.549v.55h-.55v.55h-1.098v.549h-.549v.55h-.549v.549h-.549v.55h-1.099v.549h-.549v.55h-.549v.55h-1.647v.549h-.549v.55h-1.099v.549h-1.098v.55h-.549v.55h-.549v.549h-1.098v.55h-1.099v.549h-1.098v.55h-1.098v.55h-1.098v.549h-1.099v.55h-.549v.549h-1.647v.55h-1.099v.55h-1.098v.549h-1.647v.55h-1.098v.549h-1.099v.55h-1.647v.55h-1.648v.549h-1.647v.55h-1.098v.549h-2.197v.55h-1.647v.55h-2.746v.549H91.51v.55h-2.197v.549H84.92v.55h-3.295v.549q-3.56.02-7.12.029-1.653.004-3.308.013c-5.523.031-10.974-.088-16.48-.591v-.55h-2.745v-.549h-3.844v-.55h-2.196v-.549h-2.197v-.55h-2.196v-.55h-.55v-.549h-2.745v-.55h-1.099v-.549h-2.196v-.55h-1.647v-.55h-1.648v-.549h-1.098v-.55h-1.648v-.549h-.549v-.55h-2.196v-.55h-1.098v-.549h-1.099v-.55h-1.098v-.549H21.77v-.55H20.67v-.55h-.55v-.549h-1.098v-.55h-1.098v-.549h-1.098v-1.1h-1.648v-.549h-1.098v-.55h-.55v-.549h-1.098v-.55h-.549v-.55h-1.098v-.549H9.688v-.55h-.55v-.549H8.04v-1.099H6.942v-.55h-.549v-.55h-.55v-.549H4.747v-.55h-.55v-.549H3.099v-.55H2.55v-.55H2v-.549h1.098v.549h1.099v.55h1.647v.55h.55v.549H7.49v.55H8.59v.549h1.098v.55h1.098v.55h1.098v.549h1.099v.55h1.098v.549h1.647v.55h1.099v.549h2.196v.55h.55v.55h1.098v.549h2.745v.55h1.648v.549h.549v.55h1.647v.55h2.197v.549h1.647v.55h2.197v.549h3.294v.55h2.746v.55h2.746v.549h3.294v.55h3.844v.549h3.295v.55h18.122v-.55h4.393v-.549h3.844v-.55h3.294v-.549h2.746v-.55h2.746v-.55h2.196v-.549h2.197v-.55h1.647v-.549h2.197v-.55H97v-.55h1.647v-.549h1.648v-.55h1.098v-.549h1.098v-.55h1.648v-.55h1.098v-.549h1.098v-.55h1.099v-.549h1.098v-.55h1.098v-.549h1.098v-.55h1.099v-.55h1.098v-.549h1.098v-.55h1.098v-.549h.55v-.55h1.647v-.55h.549v-.549h.549v-.55h1.098v-.549h.55v-.55h1.098v-.55h.549v-.549h1.098v-.55h.549v-.549h1.099v-.55h.549v-.55h.549v-.549h.549v-.55h1.098v-.549h.549v-.55h.55v-.55h1.098v-.549h.549v-.55h.549v-.549h.549v-.55h.549v-.549h.55v-.55h.549v-.55h1.098v-.549h.549v-.55h.549v-.549h.549v-.55h.549v-.55h.55v-.549h.549v-.55h.549v-.549h.549v-.55h.549v-.55h.549v-.549h.549v-.55h.55v-.549h.549v-.55h.549l.549-1.649h.549v-.549h.549v-.55h.549v-.55h.549v-.549h.55l.549-1.649h.549v-.55h.549v-.549h.549v-1.099h.549v-.55h.549v-.549h.549v-1.1h.55v-.549h.549l.549-1.649h.549v-.55h.549l.549-1.648h.549v-1.1h.824l.258-.79c.291-.858.291-.858.566-1.408h.549l.549-1.649h.549v-1.099h.549l.224-.72c.32-.914.702-1.74 1.14-2.603l.242-.48q.258-.512.519-1.023.41-.81.82-1.623a1618 1618 0 0 1 2.332-4.61q.715-1.412 1.428-2.827.27-.537.544-1.073.382-.75.759-1.503l.436-.861c.349-.83.507-1.572.617-2.462h.549v-.55h.824l.12-1.065c.074-.654.133-1.09.429-1.683h.549v-1.649h.549l-.068-.652c.094-1.375.614-2.495 1.167-3.744h.549l-.017-1.03c-.002-.802.036-1.501.291-2.268h.824l.035-.498c.149-1.78.488-3.446.943-5.17l.195-.756q.234-.911.474-1.82h.549l-.009-.624c-.016-1.828.059-3.608.284-5.421h.549V45.35h.549l.041-.69c.162-2.512.443-4.991.783-7.486l.148-1.124c.366-2.72.366-2.72.676-3.341"/><path d="M175.526 109.102h1.099v.55h1.372l.275 1.099h3.295c.347 1.391-.092 2.044-.72 3.25l-.315.624q-.5.984-1.007 1.966l-.679 1.335a627 627 0 0 1-1.672 3.267h-.549v1.1h-.549q-.102.32-.206.652c-.437 1.267-.937 2.504-1.442 3.744h-.824l-.274 1.1h-.549l-.241.755a13 13 0 0 1-.858 1.993h-.549l-.549 1.648h-.549l-.549 1.649h-.549v.55h-.549l-.549 1.648h-.55l-.274 1.1h-.549l-.275 1.099h-.549v.549h-.549v.55h-.549l-.549 1.649h-.55v.549h-.549v.55h-.549v.55h-.549v.549h-.549v.55h-.549v.549h-.549v.55h-.549v.55h-.55v.549h-.549v.55h-.549v.549h-.549v.55h-.549v.55h-.549v.549h-.549v1.099h-.55v.55h-1.098v.55h-.549v.549h-.549v.55h-.549v.549l-.824.275-.274.824h-.55v.55h-.549v.55h-1.098v.549h-.549v.55h-.549v.549h-1.099v.55h-.549v.55h-.549v.549h-1.098v.55c-.824.549-.824.549-1.647.549v.55c-.824.55-.824.55-1.648.55v.549c-.824.55-.824.55-1.647.55v.549c-.824.55-.824.55-1.648.55v.55c-1.819 1.099-1.819 1.099-2.745 1.099v.549c-1.819 1.1-1.819 1.1-2.746 1.1v.549h-.549v.55h-.549v.549h-1.648v.55h-1.098v.55h-1.098v.549h-1.098v.55h-1.099v.549h-1.098v.55h-1.647v.549h-1.099v.55h-1.647v.55h-1.098v.549h-1.648v.55h-1.647v.549h-1.648v.55h-1.647v.55h-1.647v.549h-2.197v.55h-2.196v.549h-2.197v.55h-2.196v.55h-2.746v.549H96.45v.55h-3.844v.549h-5.491v.55H70.093v-.55H65.15v-.549h-1.648v-.55H60.21v-.549h-4.394v-.55h-1.647v-.55h-2.197v-.549h-2.196v-.55h-1.648v-.549h-2.196v-.55h-1.647v-.55h-1.648v-.549H40.99v-.55H39.34v-.549h-1.098v-.55h-1.647v-.55h-.55v-.549H34.4v-.55h-2.196v-.549h-1.099v-.55h-1.098v-.549h-1.098v-.55H27.81v-.55H26.71v-.549h-.549v-.55h-1.098v-.549h-1.098v-.55h-1.099v-1.099H21.22v-.55h-1.098v-1.099h-1.648v-.55h-1.098v-1.099H15.73v-.549H14.63v-.55h-.549v-.55h-1.098v-.549h-.55v-.55h-1.097v-.549h-.55v-.55H9.689v-1.099H8.59v-.55H7.492v-1.099h-.55v-.55H5.845v-.549h-.549v-.55h-.549v-.549H3.648v-.55h-.55v-.549h1.099v.549h1.098v.55h1.098v.549h.55v.55H8.04v.549h1.098v.55h1.098v.55h1.099v.549h1.098v.55h1.098v.549h1.098v.55h1.099v.55h1.098v.549h1.098v.55h2.197v.549h.549v.55h1.098v.55h2.197v.549h.549v.55h1.098v.549l1.03-.034c.897-.003 1.5.074 2.265.584v.55h1.098v.549h2.746v.55h.549v.549h2.197v.55h2.196v.55h1.647v.549l.764-.019c1.864-.028 3.497-.001 5.277.569v.549h2.746v.55h2.745v.55h3.295v.549h2.746v.55h4.393v.549h21.965v-.549h4.393v-.55h2.746v-.549c2.035-.505 3.947-.615 6.04-.55v-.55h2.197v-.549h2.196v-.55h2.197v-.549h2.196v-.55h2.197v-.55h1.647v-.549h1.648v-.55h1.647v-.549h1.647v-.55h1.648v-.55h1.647v-.549h1.099v-.55h1.647v-.549h.549v-.55h1.647v-.55h1.099v-.549h1.098v-.55h1.098v-.549h1.099v-.55h1.098v-.55h1.098v-.549h1.098v-.55h1.099v-.549h.549v-.55h1.098v-.55h.549l.549-1.099h1.099l.549-1.099h1.098l.549-1.099h1.647v-.55h.55v-.549h1.098l.274-1.099h.824v-.55h.549l.549-1.099h.824v-.55h.824v-.549h1.098v-.55h.549v-.55h.549v-.549h.549v-.55h.55v-.549h1.098v-.55h.549v-.55h.549v-.549h.549v-.55h.549v-.549h.55v-.55h.549v-.55h.549v-.549h.549v-.55h.549v-.549h.549v-.55h.549v-.55h.549v-.549h.55v-.55h.549v-.549h.549v-.55h.549v-.549h.549v-.55h.549v-.55h.549v-.549h.55v-.55h.549v-.549h.549v-.55h.549v-.55h.549v-.549h.549l.275-1.099h.549v-.55h.549l.275-1.099h.549v-.55h.549v-.549h.549l.549-1.649h.549v-.55h.549l.55-1.649h.549l.549-1.648h.549l.549-1.649h.549l.549-1.649h.549v-1.099h.55l.221-.715c.33-.942.732-1.797 1.186-2.686l.448-.882.341-.663h.824z"/><path d="M146.422 59.09h5.491c.061 2.096.102 3.86-.588 5.839-.844 2.705-1.16 5.659-1.609 8.45h-.549v1.649h-.549v1.648h-.549v1.65h-.549v1.648h-.549v1.1h-.549v1.098h-.824l-.258 1.065c-.147.612-.284 1.12-.566 1.683h-.549v1.1h-.549v1.648h-.549v1.1h-.549v1.099h-.549v1.099h-1.099v1.649h-.549v1.099h-1.098v1.649h-.549v1.099h-1.099v1.649h-.823l-.275 1.099h-.549v.55h-.549v1.648h-1.098v1.099h-.549v.55h-.55v.55h-.549v.549h-.549v.55h-.549v1.099h-.549v.55h-.549v.549h-.549v.55h-.55v.549h-.549v.55h-.549v.549h-.549v.55h-.549v.55h-.549v.549h-.549v.55h-.549v.549h-.55v.55h-.549v.55h-.549v.549h-.549v.55h-.549v.549h-.549v.55h-.549v.55h-.55v.549h-1.098v.55h-.549v.549h-.549v.55h-.549v.55h-1.098v.549h-.55v.55h-.549v.549h-1.098v.55h-.549v.55h-.549v.549h-1.098v.55h-.55v.549h-1.098v.55h-.549v.549h-1.098v.55h-1.099v.55h-.549v.549h-1.098v.55h-1.098v.549h-1.098v.55h-.55v.55h-1.098v.549h-1.098v.55h-1.098v.549h-1.099v.55h-1.098v.55h-1.098v.549H96.45v.55h-1.647v.549h-1.098v.55h-1.098v.55h-1.648v.549h-1.647v.55h-1.648v.549h-2.196v.55H83.27v.55h-2.745v.549H77.23v.55h-3.295v.549h-6.59v.55H53.07v-.55h-5.491v-.549h-3.844v-.55h-2.197v-.549h-2.745v-.55h-2.197v-.55h-1.098v-.549h-3.295v-.55h-1.098v-.549h-2.197v-.55H27.81v-.55h-2.197v-.549h-1.098v-.55h-1.647v-.549h-1.099v-.55H20.67v-.55h-1.098v-.549h-1.098v-.55h-1.099v-.549h-1.098v-.55H15.18v-.55h-.55v-.549h-1.098v-.55h-1.098v-.549h-.549v-.55h-1.098v-.55H9.688v-.549h1.647v.549h1.647v.55h.55v.55h1.647v.549h1.647v.55h1.648v.549h2.745v.55h.55v.55h2.196v.549h3.844v.55h2.746v.549H33.3v.55h3.295v.55h2.746v.549h4.942v.55h13.18v-.55H64.6v-.549h5.491v-.55h2.197v-.55h2.196v-.549h2.746v-.55h2.196v-.549h1.648v-.55h1.647v-.55h1.648v-.549h1.647v-.55h1.098v-.549h1.648v-.55h1.647v-.55h1.098v-.549h1.648v-.55h1.098v-.549h1.098v-.55h1.099v-.549h1.098v-.55h1.098v-.55h.55v-.549h1.097v-.55h1.099v-.549h1.098v-.55h.549v-.55h1.098v-.549h.55v-.55h1.098v-.549h.549v-.55h1.098v-.55h.549v-.549h1.099v-.55h.549v-.549h.549v-.55h1.098v-.55h.549v-.549h.549v-.55h1.099v-.549h.549v-.55h.549v-.55h.549v-.549h1.098v-.55h.549v-.549h.55v-.55h.549v-.549h.549v-.55h.549v-.55h.549v-.549h.549v-.55h.549v-.549h.549v-.55h.55v-.55h.549l.274-1.099h.549v-.549h.55v-.55h.549l.274-1.1h.549v-.549h.55v-.55h.549v-.549h.549v-.55h.549l.549-1.648h.549v-.55h.549v-.55h.549v-.55h.55l.549-1.648h.549v-.55h.549v-.55h.549v-1.098h.549l.549-1.65h.55l.549-1.648h.549l.549-1.649h.549v-1.099h.549l.24-.755c.245-.707.506-1.337.858-1.993h.55v-1.099h.549v-1.1h.549l.189-.652c.472-1.304 1.096-2.513 1.733-3.744h.824v-1.1h.549V71.73h.549v-1.1h.549v-1.648h.549v-1.099h.549v-2.198h.549l-.028-.625c-.057-2.146.158-4.032 1.127-5.97"/><path d="M110.728 80.524h2.197v.55h2.745v.549h.549v1.648h-.549v.55h-.549v1.1h-.549v.549h-.549v1.1h-.549v1.098h-.549v.55h-.549v1.1h-.55v.549h-.549v1.099h-.549v.55h-.549v1.099h-.549v.55h-.549v.549h-.549v.55h-.55v1.099h-.549v.55h-.549v.549h-.549v.55h-.549v.549h-.549v.55h-.549v.55h-.549v.549h-.55v.55h-.549v.549h-.549v.55h-.549v.549h-.549v.55h-.549v.549h-.549v.55h-.55v.549h-.549v.55h-1.098v.55h-.549v.549h-.55v.55h-.548v.549h-1.099v.55h-.549v.55h-1.098v.549h-.55v.55h-1.097v.549h-.55v.55H90.41v.55h-1.098v.549h-.55v.55h-1.097v.549h-1.099v.55h-1.098v.55H84.37v.549h-1.648v.55h-1.098v.549h-1.098v.55h-1.648v.55h-1.647v.549h-1.647v.55h-1.648v.549H71.74v.55h-2.197v.55h-2.746v.549h-3.843v.55H58.56v.549h-4.393v-.549h-8.786v-.55h-4.393v-.549h-3.844v-.55h-2.196v-.55h-1.099v-.549h-1.647v-1.099h3.295v.549h15.925v-.549h4.942v-.55h3.844v-.55h2.746v-.549h2.196v-.55h2.197v-.549h1.647v-.55h1.647v-.55h1.648v-.549h1.647v-.55h1.098v-.549h1.648v-.55h1.098v-.55h1.098v-.549h1.099v-.55h1.098v-.549h1.098v-.55h1.099v-.55h.549v-.549h1.098v-.55h1.098v-.549h1.098v-.55h.55v-.55h1.098v-.549h1.098v-.55h.55v-.549h1.097v-.55h.55v-.549h.549v-.55h1.098v-.55h.55v-.55h1.097v-.549h.55v-.55h.549v-.549H97v-.55h.549v-.55h1.098v-.549h.55v-.55h.549v-.549h.549v-.55h.549v-.55h.549v-.549h.549v-.55h.549v-.549h.549v-.55h.549v-.55h.55v-1.098h.549v-.55h.549v-.55h.549v-.55h.549v-.549h.549V86.57h.549v-.55h.549v-.55h.55v-1.098h.549v-.55h1.098v-1.1h.549zM184.037 104.706c4.246 0 7.688-3.445 7.688-7.695 0-4.249-3.442-7.694-7.688-7.694s-7.687 3.445-7.687 7.694 3.442 7.695 7.687 7.695M49.226 149.223h25.809v.549h-4.393v.55H52.52v-.55h-3.294zM55.815 158.566q.72-.012 1.442-.017l.81-.01c.85.022 1.673.081 2.518.16 1.875.16 3.744.203 5.625.229l1.057.017 2.746.042 2.817.044q2.75.045 5.5.084v.55H60.758v-.55h-4.943zM65.15 178.901c8.056.245 8.056.245 11.395.48 3.151.197 6.317.248 9.472.344v-.549l6.59-.275v.549h-5.491v.55H70.093v-.55H65.15zM176.35 32.709h6.315v9.343h-.549V44.8h-.275v-6.045h.55v-5.771h-5.766v2.473h-.549c-.035-2.13-.035-2.13.274-2.748M44.283 173.954l2.746.275v.55h2.196v.549h1.648v.55h2.196v.55h2.197v.549h2.196v.825h-1.647v-.55h-1.647v-.55H51.97v-.549h-2.196v-.55h-1.648v-.549h-2.196v-.55h-1.648z"/><path d="M84.919 158.016v.55h-3.295v.549h-19.22v-.274h17.023v-.55l2.128-.137.607-.04a43 43 0 0 1 2.757-.098M90.41 168.458v.55h-2.745v.55h-4.393v.549h-7.688v-.275h4.942v-.549h4.942v-.55l1.854-.137 1.042-.077a33 33 0 0 1 2.047-.061M146.422 59.09h5.492v3.847h-.275v-3.023h-5.217v1.374h-.549c.24-1.58.24-1.58.549-2.198M65.15 178.901l8.237.275V180h-3.294v-.55H65.15zM33.3 164.062l3.296.275v.549h2.196v.55l.755-.052c.972.056 1.29.229 1.99.876h-2.196v-.549h-1.647v-.55h-2.197v-.55h-2.196zM47.578 137.132c6.38-.106 6.38-.106 7.688.549v.55h-2.197v-.55h-5.49z"/><path d="M84.92 158.016v.55h-3.296v.549h-2.196v-.824l2.128-.137.607-.04a43 43 0 0 1 2.756-.098"/><path d="M91.509 156.917v.55h-2.197v.549h-4.393v-.274h2.746v-.55q.651-.07 1.304-.137l.733-.078c.708-.06.708-.06 1.806-.06M145.05 63.486h.274v2.199h-.549v2.198h-.549v1.1h-.549l.274-2.2h.549v-2.198h.55zM3.099 150.872h1.098v.549h1.098v.55h1.098v.549h-.549v.55h-.549v-.55h-.549v-.549H3.648v-.55h-.55zM54.168 168.458c2.072.111 4.047.226 6.04.825v.275h-3.294v-.55h-2.746zM9.688 123.392h1.647v.549h1.647v.55h-.549v.55h-.549v-.55h-1.098v-.55H9.688zM41.537 166.26q.653.06 1.304.12l.734.068c.624.076 1.202.194 1.806.362v.549h-1.647v-.549h-2.197zM41.537 136.032q.653.059 1.304.121l.734.067c.624.077 1.202.194 1.806.362v.55h-1.647v-.55h-2.197zM36.596 134.933q.653.059 1.304.121l.733.067c.624.077 1.202.194 1.807.362v.55h-1.648v-.55h-2.196zM179.095 61.837h.275v2.199h-.549v2.198h-.55l.275-3.297h.549zM174.702 43.7h.275v3.298h-.549l-.275 1.1V45.35h.549zM33.3 164.062l3.296.275v.824h-1.099v-.55h-2.196zM45.93 156.367l3.295.275v.825h-1.098v-.55h-2.196zM41.537 155.268l3.295.275v.824h-1.098v-.549h-2.197zM31.105 145.925l3.294.275v.824h-1.098v-.549h-2.197zM27.26 144.826l3.295.275v.824h-1.099v-.549H27.26zM2 134.384h1.098v.549h1.099v.55h-.55v.55h-.549v-.55H2.55v-.55H2zM21.769 127.239l3.294.275v.824h-1.098v-.549H21.77zM109.081 93.164h.549c-.096.895-.281 1.105-.978 1.718l-.67.48v-1.099h.55v-.55h.549zM44.283 173.954l2.746.275v.825H45.93v-.55h-1.648zM109.081 164.062v.549h-1.648v.55h-1.098v-.824c2.128-.275 2.128-.275 2.746-.275M147.246 78.325h.274v1.649h-.549v1.1h-.549l.274-2.2h.55zM165.916 74.478h.275v1.649h-.549v1.099h-.549l.274-2.198h.549zM142.303 71.73h.275v1.649h-.549v1.1h-.55l.275-2.2h.549z"/><path d="M143.402 68.982h.274v1.649h-.549v1.1h-.549l.275-2.2h.549zM173.055 51.945h.275v2.198h-.55l-.274 1.1v-2.2h.549zM38.243 171.756l2.197.275v.824H39.34v-.549h-1.098zM31.105 169.008l2.196.275v.824h-1.098v-.549h-1.099zM28.907 162.413l2.197.275v.824h-1.098v-.549h-1.099zM24.515 160.764l1.064.241.598.135c.534.174.534.174 1.083.723h-1.647v-.549h-1.098zM101.393 154.169v.55h-1.098v.549h-1.099v-.824c1.579-.275 1.579-.275 2.197-.275M30.555 151.421l2.196.275v.824h-1.098v-.549h-1.098zM97 144.276v.55h-1.098v.55h-1.098v-.825c1.578-.275 1.578-.275 2.196-.275M19.572 142.078l2.197.275v.824H20.67v-.549h-1.099zM12.982 139.33l2.197.275v.824h-1.098v-.549h-1.099zM21.769 129.987l2.196.275v.824h-1.098v-.549h-1.098zM109.904 81.623h.824v1.099h-.549v1.1h-.549zM177.448 68.433h.274v2.198h-.549l-.275.55v-1.65h.55zM118.142 74.753c4.246 0 7.688-3.445 7.688-7.694s-3.442-7.695-7.688-7.695-7.688 3.445-7.688 7.695c0 4.249 3.442 7.694 7.688 7.694M150.815 52.494c4.246 0 7.688-3.444 7.688-7.694s-3.442-7.694-7.688-7.694-7.688 3.445-7.688 7.694 3.442 7.694 7.688 7.694M180.194 26.389c4.246 0 7.688-3.445 7.688-7.695S184.44 11 180.194 11s-7.688 3.445-7.688 7.694 3.442 7.695 7.688 7.695"/></g><defs><clipPath id="a"><path fill="#fff" d="M2 11h190v169H2z"/></clipPath></defs></svg>