<svg width="512" height="512" viewBox="0 0 512 512" fill="none" xmlns="http://www.w3.org/2000/svg">
<path d="M297.31 38.4H211.746C200.84 38.4 192 50.8421 192 66.1902V135.666C192 151.014 200.84 163.456 211.746 163.456H297.31C308.216 163.456 317.056 151.014 317.056 135.666V66.1902C317.056 50.8421 308.216 38.4 297.31 38.4Z" fill="#0969DA"/>
<path d="M143.663 38.4H58.1367C47.2364 38.4 38.3999 50.8421 38.3999 66.1902V135.666C38.3999 151.014 47.2364 163.456 58.1367 163.456H143.663C154.563 163.456 163.4 151.014 163.4 135.666V66.1902C163.4 50.8421 154.563 38.4 143.663 38.4Z" fill="#0969DA"/>
<path d="M450.863 38.4H365.337C354.437 38.4 345.6 50.8421 345.6 66.1902V135.666C345.6 151.014 354.437 163.456 365.337 163.456H450.863C461.764 163.456 470.6 151.014 470.6 135.666V66.1902C470.6 50.8421 461.764 38.4 450.863 38.4Z" fill="#0969DA"/>
<path d="M450.863 192H365.337C354.437 192 345.6 204.442 345.6 219.79V289.266C345.6 304.614 354.437 317.056 365.337 317.056H450.863C461.764 317.056 470.6 304.614 470.6 289.266V219.79C470.6 204.442 461.764 192 450.863 192Z" fill="#0969DA"/>
<path d="M297.31 192H211.746C200.84 192 192 204.442 192 219.79V289.266C192 304.614 200.84 317.056 211.746 317.056H297.31C308.216 317.056 317.056 304.614 317.056 289.266V219.79C317.056 204.442 308.216 192 297.31 192Z" fill="#0969DA"/>
<path d="M297.31 345.6H211.746C200.84 345.6 192 358.042 192 373.39V442.866C192 458.214 200.84 470.656 211.746 470.656H297.31C308.216 470.656 317.056 458.214 317.056 442.866V373.39C317.056 358.042 308.216 345.6 297.31 345.6Z" fill="#0969DA"/>
</svg>
