<svg width="192" height="192" viewBox="0 0 192 192" fill="none" xmlns="http://www.w3.org/2000/svg">
<path d="M104.87 13.8666H78.5966C75.248 13.8666 72.5334 17.6871 72.5334 22.4V43.7333C72.5334 48.4461 75.248 52.2666 78.5966 52.2666H104.87C108.219 52.2666 110.933 48.4461 110.933 43.7333V22.4C110.933 17.6871 108.219 13.8666 104.87 13.8666Z" fill="#0969DA"/>
<path d="M47.2702 13.8666H20.9965C17.6479 13.8666 14.9333 17.6871 14.9333 22.4V43.7333C14.9333 48.4461 17.6479 52.2666 20.9965 52.2666H47.2702C50.6188 52.2666 53.3334 48.4461 53.3334 43.7333V22.4C53.3334 17.6871 50.6188 13.8666 47.2702 13.8666Z" fill="#0969DA"/>
<path d="M162.47 13.8666H136.196C132.848 13.8666 130.133 17.6871 130.133 22.4V43.7333C130.133 48.4461 132.848 52.2666 136.196 52.2666H162.47C165.819 52.2666 168.533 48.4461 168.533 43.7333V22.4C168.533 17.6871 165.819 13.8666 162.47 13.8666Z" fill="#0969DA"/>
<path d="M162.47 71.4667H136.196C132.848 71.4667 130.133 75.2872 130.133 80V101.333C130.133 106.046 132.848 109.867 136.196 109.867H162.47C165.819 109.867 168.533 106.046 168.533 101.333V80C168.533 75.2872 165.819 71.4667 162.47 71.4667Z" fill="#0969DA"/>
<path d="M104.87 71.4667H78.5966C75.248 71.4667 72.5334 75.2872 72.5334 80V101.333C72.5334 106.046 75.248 109.867 78.5966 109.867H104.87C108.219 109.867 110.933 106.046 110.933 101.333V80C110.933 75.2872 108.219 71.4667 104.87 71.4667Z" fill="#0969DA"/>
<path d="M104.87 130.133H78.5966C75.248 130.133 72.5334 133.954 72.5334 138.667V160C72.5334 164.713 75.248 168.533 78.5966 168.533H104.87C108.219 168.533 110.933 164.713 110.933 160V138.667C110.933 133.954 108.219 130.133 104.87 130.133Z" fill="#0969DA"/>
</svg>
