<svg width="512" height="512" viewBox="0 0 512 512" fill="none" xmlns="http://www.w3.org/2000/svg">
<path d="M297.086 37.9259H214.914C204.441 37.9259 195.951 46.4159 195.951 56.8889V104.296C195.951 114.769 204.441 123.259 214.914 123.259H297.086C307.559 123.259 316.049 114.769 316.049 104.296V56.8889C316.049 46.4159 307.559 37.9259 297.086 37.9259Z" fill="#0969da"/>
<path d="M139.062 249.679H56.889C46.416 249.679 37.926 258.169 37.926 268.642V316.049C37.926 326.522 46.416 335.012 56.889 335.012H139.062C149.535 335.012 158.025 326.522 158.025 316.049V268.642C158.025 258.169 149.535 249.679 139.062 249.679Z" fill="#0969da"/>
<path d="M139.062 142.222H56.889C46.416 142.222 37.926 150.712 37.926 161.185V208.593C37.926 219.066 46.416 227.556 56.889 227.556H139.062C149.535 227.556 158.025 219.066 158.025 208.593V161.185C158.025 150.712 149.535 142.222 139.062 142.222Z" fill="#0969da"/>
<path d="M139.062 37.9259H56.889C46.416 37.9259 37.926 46.4159 37.926 56.8889V104.296C37.926 114.769 46.416 123.259 56.889 123.259H139.062C149.535 123.259 158.025 114.769 158.025 104.296V56.8889C158.025 46.4159 149.535 37.9259 139.062 37.9259Z" fill="#0969da"/>
<path d="M297.086 353.975H214.914C204.441 353.975 195.951 362.465 195.951 372.938V420.346C195.951 430.819 204.441 439.309 214.914 439.309H297.086C307.559 439.309 316.049 430.819 316.049 420.346V372.938C316.049 362.465 307.559 353.975 297.086 353.975Z" fill="#0969da"/>
<path d="M297.086 249.679H214.914C204.441 249.679 195.951 258.169 195.951 268.642V316.049C195.951 326.522 204.441 335.012 214.914 335.012H297.086C307.559 335.012 316.049 326.522 316.049 316.049V268.642C316.049 258.169 307.559 249.679 297.086 249.679Z" fill="#0969da"/>
<path d="M297.086 142.222H214.914C204.441 142.222 195.951 150.712 195.951 161.185V208.593C195.951 219.066 204.441 227.556 214.914 227.556H297.086C307.559 227.556 316.049 219.066 316.049 208.593V161.185C316.049 150.712 307.559 142.222 297.086 142.222Z" fill="#0969da"/>
<path d="M455.111 142.222H372.938C362.465 142.222 353.975 150.712 353.975 161.185V208.593C353.975 219.066 362.465 227.556 372.938 227.556H455.111C465.584 227.556 474.074 219.066 474.074 208.593V161.185C474.074 150.712 465.584 142.222 455.111 142.222Z" fill="#0969da"/>
<path d="M455.111 37.9259H372.938C362.465 37.9259 353.975 46.4159 353.975 56.8889V104.296C353.975 114.769 362.465 123.259 372.938 123.259H455.111C465.584 123.259 474.074 114.769 474.074 104.296V56.8889C474.074 46.4159 465.584 37.9259 455.111 37.9259Z" fill="#0969da"/>
</svg>
