<svg width="192" height="192" viewBox="0 0 192 192" fill="none" xmlns="http://www.w3.org/2000/svg">
<path d="M111.407 14.2222H80.5926C76.6652 14.2222 73.4814 17.406 73.4814 21.3333V39.1111C73.4814 43.0385 76.6652 46.2222 80.5926 46.2222H111.407C115.335 46.2222 118.518 43.0385 118.518 39.1111V21.3333C118.518 17.406 115.335 14.2222 111.407 14.2222Z" fill="#0969da"/>
<path d="M52.1481 93.6296H21.3333C17.4059 93.6296 14.2222 96.8134 14.2222 100.741V118.519C14.2222 122.446 17.4059 125.63 21.3333 125.63H52.1481C56.0755 125.63 59.2592 122.446 59.2592 118.519V100.741C59.2592 96.8134 56.0755 93.6296 52.1481 93.6296Z" fill="#0969da"/>
<path d="M52.1481 53.3333H21.3333C17.4059 53.3333 14.2222 56.5171 14.2222 60.4445V78.2222C14.2222 82.1496 17.4059 85.3333 21.3333 85.3333H52.1481C56.0755 85.3333 59.2592 82.1496 59.2592 78.2222V60.4445C59.2592 56.5171 56.0755 53.3333 52.1481 53.3333Z" fill="#0969da"/>
<path d="M52.1481 14.2222H21.3333C17.4059 14.2222 14.2222 17.406 14.2222 21.3333V39.1111C14.2222 43.0385 17.4059 46.2222 21.3333 46.2222H52.1481C56.0755 46.2222 59.2592 43.0385 59.2592 39.1111V21.3333C59.2592 17.406 56.0755 14.2222 52.1481 14.2222Z" fill="#0969da"/>
<path d="M111.407 132.741H80.5926C76.6652 132.741 73.4814 135.924 73.4814 139.852V157.63C73.4814 161.557 76.6652 164.741 80.5926 164.741H111.407C115.335 164.741 118.518 161.557 118.518 157.63V139.852C118.518 135.924 115.335 132.741 111.407 132.741Z" fill="#0969da"/>
<path d="M111.407 93.6296H80.5926C76.6652 93.6296 73.4814 96.8134 73.4814 100.741V118.519C73.4814 122.446 76.6652 125.63 80.5926 125.63H111.407C115.335 125.63 118.518 122.446 118.518 118.519V100.741C118.518 96.8134 115.335 93.6296 111.407 93.6296Z" fill="#0969da"/>
<path d="M111.407 53.3333H80.5926C76.6652 53.3333 73.4814 56.5171 73.4814 60.4445V78.2222C73.4814 82.1496 76.6652 85.3333 80.5926 85.3333H111.407C115.335 85.3333 118.518 82.1496 118.518 78.2222V60.4445C118.518 56.5171 115.335 53.3333 111.407 53.3333Z" fill="#0969da"/>
<path d="M170.667 53.3333H139.852C135.924 53.3333 132.741 56.5171 132.741 60.4445V78.2222C132.741 82.1496 135.924 85.3333 139.852 85.3333H170.667C174.594 85.3333 177.778 82.1496 177.778 78.2222V60.4445C177.778 56.5171 174.594 53.3333 170.667 53.3333Z" fill="#0969da"/>
<path d="M170.667 14.2222H139.852C135.924 14.2222 132.741 17.406 132.741 21.3333V39.1111C132.741 43.0385 135.924 46.2222 139.852 46.2222H170.667C174.594 46.2222 177.778 43.0385 177.778 39.1111V21.3333C177.778 17.406 174.594 14.2222 170.667 14.2222Z" fill="#0969da"/>
</svg>
